# xmcd
#
# Track frame offsets: 
#        150
#        19118
#        38340
#        60160
#        80360
#        96212
#        113785
#        134269
#        151475
#        171055
#        186434
#        208991
#        227253
#        248091
#        265960
#        281094
#        306584
#        329484
#
# Disc length: 4575 seconds
#
# Revision: 0
# Processed by: cddbd v1.5.2PL0 Copyright (c) Steve Scherf et al.
# Submitted via: ExactAudioCopy v1.0b3
#
DISCID=f511dd12
DTITLE=Little Milton - Sings Big Soul
DYEAR=2014
DGENRE=Blues
TTITLE0=Misty Blue
TTITLE1=A Nickel And A Nail
TTITLE2=A Rainy Night In Georgia
TTITLE3=Can't Trust Your Neighbour
TTITLE4=What Our Love Needs
TTITLE5=A Man Needs A Woman
TTITLE6=Caught In The Act (Of Gettin' It On)
TTITLE7=You Left A Goldmine For A Golddigger
TTITLE8=That's The Way I Feel About 'Cha
TTITLE9=Gonna Have A Murder On Your Hands
TTITLE10=I'd Rather Go Blind
TTITLE11=Strugglin' Lady
TTITLE12=This Time They Told The Truth
TTITLE13=Mr And Mrs Untrue
TTITLE14=Lovable Girl
TTITLE15=I Had A Talk With My Baby Last Night
TTITLE16=The End Of The Rainbow
TTITLE17=We're Gonna Make It
EXTD=
EXTT0=
EXTT1=
EXTT2=
EXTT3=
EXTT4=
EXTT5=
EXTT6=
EXTT7=
EXTT8=
EXTT9=
EXTT10=
EXTT11=
EXTT12=
EXTT13=
EXTT14=
EXTT15=
EXTT16=
EXTT17=
PLAYORDER=
